<svg width="26" height="27" viewBox="0 0 26 27" fill="none" xmlns="http://www.w3.org/2000/svg">
<g id="cib:apple" clip-path="url(#clip0_30_6061)">
<path id="Vector" d="M7.66841 25.639C7.1558 25.298 6.70147 24.8766 6.32291 24.391C5.90649 23.8898 5.52067 23.364 5.16753 22.8164C4.33885 21.6024 3.68898 20.2755 3.23785 18.8766C2.69591 17.2516 2.43347 15.694 2.43347 14.1706C2.43347 12.4692 2.80153 10.9839 3.52141 9.73594C4.05504 8.76049 4.83962 7.94533 5.79397 7.37482C6.71885 6.80035 7.78154 6.48598 8.8701 6.46482C9.25116 6.46482 9.66147 6.52007 10.097 6.62569C10.4098 6.71425 10.7908 6.854 11.2564 7.02788C11.8487 7.25619 12.1745 7.39594 12.285 7.43007C12.632 7.55682 12.9237 7.61207 13.1528 7.61207C13.3267 7.61207 13.572 7.55682 13.8507 7.47232C14.0075 7.41707 14.3033 7.31957 14.7266 7.13838C15.1458 6.98563 15.4757 6.85482 15.7382 6.75732C16.1403 6.63869 16.5295 6.529 16.8765 6.47375C17.2878 6.40891 17.7052 6.39173 18.1204 6.42257C18.84 6.4696 19.5487 6.62208 20.224 6.87513C21.3282 7.31957 22.2211 8.01344 22.8857 8.99982C22.6048 9.17296 22.3412 9.37266 22.0984 9.59619C21.57 10.0647 21.1198 10.6146 20.7651 11.2253C20.3014 12.0597 20.061 12.9998 20.0672 13.9544C20.0842 15.1269 20.3848 16.1596 20.9772 17.0525C21.4126 17.7143 21.9786 18.2802 22.6403 18.7157C22.9792 18.944 23.2708 19.1008 23.5503 19.2064C23.4195 19.6127 23.2798 20.0059 23.1148 20.3959C22.7408 21.2705 22.2874 22.109 21.7604 22.9009C21.2908 23.5826 20.9227 24.0904 20.6432 24.4284C20.2077 24.9443 19.7885 25.3384 19.3652 25.613C18.8996 25.9218 18.3495 26.0867 17.7905 26.0867C17.412 26.1012 17.0335 26.0554 16.6693 25.951C16.3565 25.8454 16.0469 25.7308 15.7422 25.6C15.4255 25.4545 15.0988 25.3315 14.7648 25.2319C13.939 25.0199 13.0733 25.0185 12.2468 25.2279C11.908 25.3254 11.5822 25.4391 11.2605 25.5789C10.8079 25.769 10.5073 25.8966 10.3334 25.951C9.98647 26.0526 9.62653 26.1159 9.26253 26.1371C8.69947 26.1371 8.1746 25.9762 7.6546 25.6504L7.66841 25.639ZM15.0947 5.63932C14.3585 6.00738 13.6557 6.16419 12.9578 6.113C12.8481 5.41019 12.9578 4.69113 13.2495 3.90382C13.4978 3.23681 13.8647 2.62021 14.3325 2.08382C14.8265 1.51915 15.426 1.05631 16.0973 0.721253C16.8123 0.35319 17.494 0.154128 18.1456 0.124878C18.2301 0.861003 18.1456 1.58494 17.875 2.36738C17.6246 3.05905 17.2584 3.70307 16.792 4.27188C16.3159 4.83732 15.7316 5.30195 15.0735 5.6385L15.0947 5.63932Z" fill="black"/>
</g>
<defs>
<clipPath id="clip0_30_6061">
<rect width="26" height="26" fill="white" transform="translate(0 0.125732)"/>
</clipPath>
</defs>
</svg>
