<svg width="20" height="20" viewBox="0 0 20 20" fill="none" xmlns="http://www.w3.org/2000/svg">
<g id="back_arrow">
<path id="Vector" d="M14.063 2.49288C13.9711 2.40072 13.8619 2.3276 13.7417 2.27772C13.6214 2.22783 13.4926 2.20215 13.3624 2.20215C13.2322 2.20215 13.1033 2.22783 12.9831 2.27772C12.8629 2.3276 12.7537 2.40072 12.6618 2.49288L6.08302 9.07163C6.00963 9.14487 5.9514 9.23186 5.91168 9.32763C5.87195 9.4234 5.8515 9.52607 5.8515 9.62975C5.8515 9.73343 5.87195 9.8361 5.91168 9.93187C5.9514 10.0276 6.00963 10.1146 6.08302 10.1879L12.6618 16.7666C13.0497 17.1545 13.6751 17.1545 14.063 16.7666C14.4509 16.3787 14.4509 15.7533 14.063 15.3654L8.33135 9.62579L14.0709 3.88621C14.4509 3.50621 14.4509 2.87288 14.063 2.49288Z" fill="#1E232C" stroke="#1E232C" stroke-width="0.2"/>
</g>
</svg>
