<svg width="20" height="20" viewBox="0 0 20 20" fill="none" xmlns="http://www.w3.org/2000/svg">
<path d="M13.5631 2.49288C13.4712 2.40072 13.362 2.3276 13.2417 2.27772C13.1215 2.22783 12.9926 2.20215 12.8625 2.20215C12.7323 2.20215 12.6034 2.22783 12.4832 2.27772C12.363 2.3276 12.2538 2.40072 12.1618 2.49288L5.58308 9.07163C5.50969 9.14487 5.45147 9.23186 5.41174 9.32763C5.37201 9.4234 5.35156 9.52607 5.35156 9.62975C5.35156 9.73343 5.37201 9.8361 5.41174 9.93187C5.45147 10.0276 5.50969 10.1146 5.58308 10.1879L12.1618 16.7666C12.5497 17.1545 13.1752 17.1545 13.5631 16.7666C13.951 16.3787 13.951 15.7533 13.5631 15.3654L7.83141 9.62579L13.571 3.88621C13.951 3.50621 13.951 2.87288 13.5631 2.49288Z" fill="#1E232C" stroke="#1E232C" stroke-width="0.2"/>
</svg>
