<svg width="36" height="36" viewBox="0 0 36 36" fill="none" xmlns="http://www.w3.org/2000/svg">
<path fill-rule="evenodd" clip-rule="evenodd" d="M12.1667 6.33333C12.1667 5.52793 12.7694 4.875 13.5128 4.875H22.4872C23.2306 4.875 23.8334 5.52793 23.8334 6.33333C23.8334 7.13874 23.2306 7.79167 22.4872 7.79167H13.5128C12.7694 7.79167 12.1667 7.13874 12.1667 6.33333Z" fill="white"/>
<path fill-rule="evenodd" clip-rule="evenodd" d="M14.7593 31.125H21.2407C25.7923 31.125 28.0681 31.125 29.7029 30.0716C30.4104 29.6156 31.0181 29.0297 31.4911 28.3473C32.5834 26.7709 32.5834 24.5764 32.5834 20.1874C32.5834 15.7984 32.5831 13.6041 31.4908 12.0277C31.018 11.3453 30.4103 10.7593 29.7026 10.3033C28.0678 9.25 25.792 9.25 21.2406 9.25H14.759C10.2075 9.25 7.93179 9.25 6.29701 10.3033C5.5893 10.7593 4.98165 11.3453 4.50877 12.0277C3.41669 13.6038 3.41669 15.7973 3.41669 20.1844V20.1874C3.41669 24.5764 3.41669 26.7709 4.50901 28.3473C4.98189 29.0297 5.58953 29.6156 6.29725 30.0716C7.93204 31.125 10.2078 31.125 14.7593 31.125ZM11.9236 20.1874C11.9236 16.9512 14.6441 14.3279 18 14.3279C21.3559 14.3279 24.0765 16.9512 24.0765 20.1874C24.0765 23.4234 21.3559 26.0468 18 26.0468C14.6441 26.0468 11.9236 23.4234 11.9236 20.1874ZM14.3542 20.1874C14.3542 18.2457 15.9865 16.6716 18 16.6716C20.0135 16.6716 21.6459 18.2457 21.6459 20.1874C21.6459 22.129 20.0135 23.703 18 23.703C15.9865 23.703 14.3542 22.129 14.3542 20.1874ZM26.912 14.3279C26.2409 14.3279 25.6968 14.8525 25.6968 15.4997C25.6968 16.147 26.2409 16.6716 26.912 16.6716H27.7223C28.3934 16.6716 28.9375 16.147 28.9375 15.4997C28.9375 14.8525 28.3934 14.3279 27.7223 14.3279H26.912Z" fill="white"/>
</svg>
