<svg width="22" height="23" viewBox="0 0 22 23" fill="none" xmlns="http://www.w3.org/2000/svg">
<path d="M7.11111 1.63265C7.81433 1.63265 8.50176 1.87204 9.08647 2.32053C9.67118 2.76903 10.1269 3.40649 10.396 4.15231C10.6651 4.89813 10.7355 5.71881 10.5983 6.51057C10.4612 7.30233 10.1225 8.02961 9.62527 8.60044C9.12802 9.17126 8.49448 9.56 7.80477 9.71749C7.11506 9.87498 6.40015 9.79415 5.75046 9.48522C5.10077 9.17629 4.54546 8.65314 4.15477 7.98192C3.76409 7.3107 3.55556 6.52156 3.55556 5.71429C3.55556 4.63177 3.93016 3.59359 4.59695 2.82814C5.26375 2.06268 6.16812 1.63265 7.11111 1.63265ZM7.11111 0C6.1266 0 5.1642 0.335137 4.34561 0.963031C3.52701 1.59092 2.889 2.48337 2.51224 3.52752C2.13549 4.57167 2.03691 5.72062 2.22898 6.82909C2.42105 7.93755 2.89514 8.95574 3.59129 9.7549C4.28745 10.5541 5.1744 11.0983 6.14 11.3188C7.10559 11.5393 8.10645 11.4261 9.01602 10.9936C9.92559 10.5611 10.703 9.82868 11.25 8.88897C11.7969 7.94926 12.0889 6.84446 12.0889 5.71429C12.0889 4.19876 11.5644 2.74531 10.6309 1.67368C9.69742 0.602039 8.4313 0 7.11111 0ZM14.2222 22.8571H12.8V18.7755C12.8 17.693 12.4254 16.6548 11.7586 15.8894C11.0918 15.1239 10.1874 14.6939 9.24444 14.6939H4.97778C4.03479 14.6939 3.13042 15.1239 2.46362 15.8894C1.79682 16.6548 1.42222 17.693 1.42222 18.7755V22.8571H0V18.7755C0 17.26 0.524443 15.8065 1.45796 14.7349C2.39147 13.6633 3.65759 13.0612 4.97778 13.0612H9.24444C10.5646 13.0612 11.8308 13.6633 12.7643 14.7349C13.6978 15.8065 14.2222 17.26 14.2222 18.7755V22.8571ZM14.2222 1.63265H21.3333V3.26531H14.2222V1.63265ZM14.2222 5.71429H21.3333V7.34694H14.2222V5.71429ZM14.2222 9.79592H19.2V11.4286H14.2222V9.79592Z" fill="#384A6F"/>
</svg>
