<svg width="26" height="27" viewBox="0 0 26 27" fill="none" xmlns="http://www.w3.org/2000/svg">
<g id="google_ic">
<g id="Group 123">
<path id="Vector" d="M6.42008 15.5913L5.59733 18.6627L2.5902 18.7264C1.69151 17.0595 1.18176 15.1524 1.18176 13.1257C1.18176 11.166 1.65837 9.31794 2.50318 7.69067H2.50383L5.18102 8.1815L6.35379 10.8426C6.10833 11.5582 5.97454 12.3264 5.97454 13.1257C5.97464 13.9933 6.13178 14.8245 6.42008 15.5913Z" fill="#FBBB00"/>
<path id="Vector_2" d="M24.6116 10.9178C24.7474 11.6328 24.8181 12.3711 24.8181 13.1256C24.8181 13.9717 24.7292 14.7971 24.5597 15.5932C23.9844 18.3023 22.4811 20.6678 20.3987 22.3419L20.398 22.3412L17.026 22.1692L16.5487 19.1899C17.9305 18.3796 19.0104 17.1114 19.5793 15.5932H13.2598V10.9178H19.6715H24.6116Z" fill="#518EF8"/>
<path id="Vector_3" d="M20.398 22.3413L20.3986 22.3419C18.3733 23.9698 15.8006 24.9439 12.9999 24.9439C8.4993 24.9439 4.58633 22.4283 2.59021 18.7264L6.42008 15.5913C7.41812 18.2549 9.98761 20.151 12.9999 20.151C14.2947 20.151 15.5078 19.801 16.5486 19.19L20.398 22.3413Z" fill="#28B446"/>
<path id="Vector_4" d="M20.5434 4.02826L16.7149 7.16267C15.6376 6.48931 14.3642 6.10032 12.9999 6.10032C9.91941 6.10032 7.30186 8.08342 6.35382 10.8426L2.50382 7.69061H2.50317C4.47007 3.8984 8.43239 1.3075 12.9999 1.3075C15.8675 1.3075 18.4967 2.32894 20.5434 4.02826Z" fill="#F14336"/>
</g>
</g>
</svg>
