<svg fill="none" height="15" viewBox="0 0 15 15" width="15" xmlns="http://www.w3.org/2000/svg">
    <path clip-rule="evenodd" d="M1.09835 1.09835C-8.9407e-08 2.1967 0 3.96446 0 7.5C0 11.0355 -8.9407e-08 12.8033 1.09835 13.9016C2.1967 15 3.96446 15 7.5 15C11.0355 15 12.8033 15 13.9016 13.9016C15 12.8033 15 11.0355 15 7.5C15 3.96446 15 2.1967 13.9016 1.09835C12.8033 -8.9407e-08 11.0355 0 7.5 0C3.96446 0 2.1967 -8.9407e-08 1.09835 1.09835ZM10.5 6C11.3285 6 12 5.32843 12 4.5C12 3.67157 11.3285 3 10.5 3C9.67155 3 9 3.67157 9 4.5C9 5.32843 9.67155 6 10.5 6ZM3.24069 8.32785C3.70876 7.89307 4.43993 7.91745 4.87798 8.38245L6.86362 10.4902C7.46317 11.1267 8.4447 11.2124 9.14558 10.6895C9.60548 10.3465 10.2457 10.3855 10.6606 10.7818L12.3614 12.4067C12.586 12.6213 12.9421 12.6132 13.1567 12.3886C13.3713 12.164 13.3632 11.8079 13.1386 11.5933L11.4377 9.96832C10.6259 9.19275 9.37283 9.11648 8.4729 9.7878C8.23013 9.96892 7.89015 9.93923 7.68248 9.7188L5.69684 7.61107C4.83488 6.69607 3.39612 6.64807 2.47507 7.50352L1.8672 8.06812C1.63958 8.27955 1.62643 8.63542 1.83785 8.86305C2.04927 9.09068 2.40518 9.10388 2.63281 8.89245L3.24069 8.32785Z"
        fill="#1C274C"
        fill-rule="evenodd" />
</svg>
