<svg width="20" height="20" viewBox="0 0 20 20" fill="none" xmlns="http://www.w3.org/2000/svg">
<path d="M10 20C8.62371 20 7.32741 19.737 6.11112 19.2111C4.89482 18.6844 3.83556 17.9696 2.93334 17.0667C2.03112 16.1637 1.3163 15.1044 0.788895 13.8889C0.261488 12.6733 -0.00147526 11.377 6.22471e-06 10C6.22471e-06 8.61926 0.262969 7.32185 0.788895 6.10778C1.31556 4.89296 2.03038 3.83481 2.93334 2.93333C3.8363 2.03185 4.89556 1.31704 6.11112 0.788889C7.32741 0.262963 8.62371 0 10 0C11.3807 0 12.6782 0.262963 13.8922 0.788889C15.107 1.31556 16.1656 2.03037 17.0678 2.93333C17.97 3.8363 18.6844 4.89444 19.2111 6.10778C19.737 7.32259 20 8.62 20 10C20 11.3763 19.737 12.6726 19.2111 13.8889C18.6844 15.1052 17.9696 16.1644 17.0667 17.0667C16.1637 17.9689 15.1056 18.6837 13.8922 19.2111C12.6789 19.7385 11.3815 20.0015 10 20ZM10 18.8978C10.6519 18.06 11.1896 17.2374 11.6133 16.43C12.0363 15.6226 12.3804 14.7189 12.6456 13.7189H7.35445C7.64852 14.7752 7.99963 15.707 8.40778 16.5144C8.81667 17.3218 9.34741 18.1163 10 18.8978ZM8.58556 18.7311C8.06704 18.12 7.59371 17.3644 7.16556 16.4644C6.73741 15.5652 6.41889 14.6496 6.21 13.7178H1.94889C2.58593 15.0993 3.48852 16.2326 4.65667 17.1178C5.82556 18.0022 7.13519 18.54 8.58556 18.7311ZM11.4144 18.7311C12.8648 18.54 14.1744 18.0022 15.3433 17.1178C16.5115 16.2326 17.4141 15.0993 18.0511 13.7178H13.7911C13.5096 14.6637 13.1552 15.5863 12.7278 16.4856C12.2996 17.3856 11.8619 18.1348 11.4144 18.7311ZM1.49556 12.6078H5.97889C5.89445 12.1515 5.83519 11.707 5.80112 11.2744C5.76556 10.8426 5.74778 10.4178 5.74778 10C5.74778 9.58222 5.76519 9.1574 5.8 8.72555C5.83482 8.2937 5.89408 7.84926 5.97778 7.39222H1.49667C1.37593 7.77741 1.28149 8.19703 1.21334 8.65111C1.14519 9.10444 1.11112 9.55407 1.11112 10C1.11112 10.4459 1.14482 10.8959 1.21223 11.35C1.27964 11.8041 1.37408 12.223 1.49556 12.6067M7.09 12.6067H12.91C12.9944 12.1511 13.0537 11.7141 13.0878 11.2956C13.1233 10.8778 13.1411 10.4459 13.1411 10C13.1411 9.55407 13.1237 9.12222 13.0889 8.70444C13.0541 8.28666 12.9948 7.84963 12.9111 7.39333H7.08889C7.00519 7.84889 6.94593 8.28592 6.91112 8.70444C6.8763 9.12222 6.85889 9.55407 6.85889 10C6.85889 10.4459 6.8763 10.8778 6.91112 11.2956C6.94593 11.7133 7.0063 12.1504 7.09 12.6067ZM14.0222 12.6067H18.5044C18.6252 12.2222 18.7196 11.8033 18.7878 11.35C18.8552 10.8959 18.8889 10.4459 18.8889 10C18.8889 9.55407 18.8552 9.10407 18.7878 8.65C18.7204 8.19592 18.6259 7.77704 18.5044 7.39333H14.0211C14.1056 7.84889 14.1648 8.29296 14.1989 8.72555C14.2344 9.15814 14.2522 9.58296 14.2522 10C14.2522 10.417 14.2348 10.8418 14.2 11.2744C14.1652 11.707 14.1059 12.1515 14.0222 12.6078M13.7911 6.28222H18.0511C17.4 4.87185 16.5082 3.73852 15.3756 2.88222C14.243 2.02593 12.9226 1.48111 11.4144 1.24778C11.933 1.93 12.3993 2.71037 12.8133 3.58889C13.2274 4.46667 13.5533 5.36444 13.7911 6.28222ZM7.35445 6.28222H12.6456C12.3522 5.23926 11.9904 4.2963 11.56 3.45333C11.1296 2.61037 10.6096 1.82667 10 1.10222C9.39037 1.82593 8.87037 2.60963 8.44 3.45333C8.00963 4.29704 7.64704 5.24 7.35445 6.28222ZM1.95001 6.28222H6.21C6.44778 5.36518 6.77371 4.46741 7.18778 3.58889C7.60186 2.71037 8.06815 1.93 8.58667 1.24778C7.06519 1.48185 5.74149 2.03 4.61556 2.89222C3.48963 3.75593 2.60075 4.88555 1.94889 6.28111" fill="#384B70"/>
</svg>
