<svg fill="none" height="31" viewBox="0 0 31 31" width="31" xmlns="http://www.w3.org/2000/svg">
    <g clip-path="url(#clip0_122_180)">
        <path
            d="M15.1164 14.8984H14.1096V16.8906H15.1164C15.667 16.8906 16.1149 16.4451 16.1149 15.8945C16.1149 15.3439 15.667 14.8984 15.1164 14.8984Z"
            fill="#A92733" />
        <path
            d="M10.4182 23.1721V11.7643C10.4182 11.4406 10.6733 11.207 10.9969 11.207H22.4299V4.76172H18.6213C18.2977 4.76172 18.0353 4.49939 18.0353 4.17578V0.308594H5.2619V26.3828H22.4299V23.7461H10.9969C10.6733 23.7461 10.4182 23.4957 10.4182 23.1721ZM7.1955 3.58984H13.5236C13.8472 3.58984 14.1096 3.85217 14.1096 4.17578C14.1096 4.49939 13.8472 4.76172 13.5236 4.76172H7.1955C6.87194 4.76172 6.60956 4.49939 6.60956 4.17578C6.60956 3.85217 6.87194 3.58984 7.1955 3.58984ZM7.1955 6.10938H20.4963C20.8198 6.10938 21.0822 6.3717 21.0822 6.69531C21.0822 7.01893 20.8198 7.28125 20.4963 7.28125H7.1955C6.87194 7.28125 6.60956 7.01893 6.60956 6.69531C6.60956 6.3717 6.87194 6.10938 7.1955 6.10938ZM6.60956 9.21484C6.60956 8.89123 6.87194 8.62891 7.1955 8.62891H20.4963C20.8198 8.62891 21.0822 8.89123 21.0822 9.21484C21.0822 9.53846 20.8198 9.80078 20.4963 9.80078H7.1955C6.87194 9.80078 6.60956 9.53846 6.60956 9.21484Z"
            fill="#384A6F" />
        <path
            d="M20.3133 14.8984H19.7932V20.0547H20.3133C21.493 20.0547 22.4299 19.0914 22.4299 17.9119V17.0246C22.4299 15.845 21.493 14.8984 20.3133 14.8984Z"
            fill="#A92733" />
        <path
            d="M23.1965 12.3789C23.1395 12.3789 23.0789 12.4076 23.0158 12.4076C22.9528 12.4076 22.8921 12.3789 22.8352 12.3789H11.59V22.5742H22.8975C22.9357 22.5742 22.9753 22.5623 23.0158 22.5623C23.0564 22.5623 23.0959 22.5742 23.1341 22.5742H30.0471V12.3789H23.1965ZM15.1164 18.0625H14.1096V20.6371C14.1096 20.9606 13.8472 21.223 13.5236 21.223C13.2 21.223 12.9377 20.9606 12.9377 20.6371V14.2993C12.9377 13.9757 13.2084 13.7266 13.532 13.7266H15.1164C16.3132 13.7266 17.2868 14.6978 17.2868 15.8945C17.2868 17.0913 16.3132 18.0625 15.1164 18.0625ZM23.6017 17.9119C23.6017 19.7376 22.1391 21.2266 20.3133 21.2266H19.2359C18.9124 21.2266 18.6213 20.9606 18.6213 20.6371V14.2993C18.6213 13.9757 18.9124 13.7266 19.2359 13.7266H20.3133C22.1391 13.7266 23.6017 15.1988 23.6017 17.0246V17.9119ZM28.1135 14.8984H26.1799V16.8906H27.4689C27.7925 16.8906 28.0549 17.153 28.0549 17.4766C28.0549 17.8001 27.7925 18.0625 27.4689 18.0625H26.1799V20.6406C26.1799 20.9642 25.9175 21.2266 25.5939 21.2266C25.2704 21.2266 25.008 20.9642 25.008 20.6406V14.3125C25.008 13.9889 25.2704 13.7266 25.5939 13.7266H28.1135C28.437 13.7266 28.6994 13.9889 28.6994 14.3125C28.6994 14.6361 28.437 14.8984 28.1135 14.8984Z"
            fill="#A92733" />
        <path d="M19.2072 1.16162V3.58986H21.623L19.2072 1.16162Z" fill="#384A6F" />
        <path
            d="M4.09003 26.9688V5.40625H1.45331V30.1914H18.0353V27.5547H4.67596C4.35241 27.5547 4.09003 27.2923 4.09003 26.9688Z"
            fill="#384A6F" />
    </g>
    <defs>
        <clipPath id="clip0_122_180">
            <rect fill="white" height="30" transform="translate(0.750183 0.25)" width="30" />
        </clipPath>
    </defs>
</svg>
