<svg fill="none" height="26" viewBox="0 0 22 26" width="22" xmlns="http://www.w3.org/2000/svg">
    <path clip-rule="evenodd" d="M14.6095 2.58179H14.6692C15.4426 2.58178 16.0662 2.58178 16.5683 2.63792C17.086 2.69583 17.5371 2.81847 17.9427 3.11086C18.3535 3.40689 18.6987 3.81307 18.9505 4.29616C19.199 4.7733 19.3033 5.3039 19.3525 5.9129C19.4002 6.50343 19.4002 7.237 19.4002 8.14662V8.21696C19.4002 8.81463 19.4002 9.3134 19.3675 9.71852C19.3333 10.142 19.259 10.5367 19.0704 10.8987C18.8858 11.253 18.6326 11.5508 18.3314 11.768C18.0236 11.9898 17.6881 12.0772 17.328 12.1174C16.9836 12.156 16.5595 12.1559 16.0514 12.1559H15.0846C14.3533 12.156 13.7435 12.156 13.2593 12.0795C12.7483 11.9987 12.287 11.8209 11.9162 11.3848C11.5455 10.9488 11.3944 10.4061 11.3257 9.805C11.2606 9.23555 11.2606 8.51823 11.2607 7.65801V6.52088C11.2607 5.9232 11.2606 5.42435 11.2934 5.01922C11.3276 4.59571 11.4019 4.20101 11.5904 3.839C11.7751 3.48473 12.0283 3.18687 12.3295 2.96977C12.6372 2.74792 12.9728 2.66055 13.3328 2.62028C13.6773 2.58177 14.1014 2.58178 14.6095 2.58179ZM15.3304 8.56564C14.9109 8.56564 14.7012 8.56564 14.553 8.44203C14.5008 8.39842 14.4551 8.34475 14.418 8.28327C14.3129 8.10906 14.3129 7.86233 14.3129 7.36888C14.3129 6.87543 14.3129 6.62868 14.418 6.45448C14.4551 6.393 14.5008 6.33933 14.553 6.29571C14.7012 6.1721 14.9109 6.1721 15.3304 6.1721C15.75 6.1721 15.9597 6.1721 16.1078 6.29571C16.1601 6.33933 16.2057 6.393 16.2428 6.45448C16.3479 6.62868 16.3479 6.87541 16.3479 7.36887C16.3479 7.86233 16.3479 8.10906 16.2428 8.28327C16.2057 8.34475 16.1601 8.39842 16.1078 8.44203C15.9597 8.56564 15.75 8.56564 15.3304 8.56564Z"
        fill="#1C274C"
        fill-rule="evenodd" />
    <path clip-rule="evenodd" d="M8.97084 2.96977C8.66307 2.74792 8.32753 2.66055 7.96747 2.62028C7.62304 2.58177 7.19898 2.58178 6.69084 2.58179H6.63111C5.8578 2.58178 5.23412 2.58178 4.73207 2.63792C4.21432 2.69583 3.76323 2.81847 3.35758 3.11086C2.94687 3.40689 2.60156 3.81307 2.34988 4.29616C2.1013 4.7733 1.99704 5.3039 1.94781 5.9129C1.90008 6.50342 1.90008 7.23698 1.90009 8.14658V8.21684C1.90008 8.81454 1.90007 9.31339 1.93281 9.71852C1.96705 10.142 2.04133 10.5367 2.22994 10.8987C2.4145 11.253 2.66774 11.5508 2.96892 11.768C3.27669 11.9898 3.61225 12.0772 3.9723 12.1174C4.31671 12.156 4.74073 12.1559 5.24883 12.1559H6.2157C6.94701 12.156 7.55687 12.156 8.04099 12.0795C8.55199 11.9987 9.01337 11.8209 9.38411 11.3848C9.75485 10.9487 9.90596 10.4061 9.97465 9.805C10.0397 9.23555 10.0397 8.51824 10.0397 7.65804V6.52089C10.0397 5.92324 10.0397 5.42433 10.0069 5.01922C9.97272 4.59571 9.89844 4.20101 9.70987 3.839C9.52524 3.48473 9.27202 3.18687 8.97084 2.96977ZM5.1925 8.44203C5.3406 8.56564 5.55036 8.56564 5.96988 8.56564C6.3894 8.56564 6.59917 8.56564 6.74727 8.44203C6.79954 8.39842 6.84517 8.34475 6.88224 8.28327C6.98733 8.10906 6.98733 7.86233 6.98733 7.36887C6.98733 6.87541 6.98733 6.62868 6.88224 6.45447C6.84517 6.393 6.79954 6.33933 6.74727 6.29571C6.59917 6.1721 6.3894 6.1721 5.96988 6.1721C5.55036 6.1721 5.3406 6.1721 5.1925 6.29571C5.14024 6.33933 5.0946 6.393 5.05752 6.45447C4.95243 6.62868 4.95243 6.87541 4.95243 7.36887C4.95243 7.86233 4.95243 8.10906 5.05752 8.28327C5.0946 8.34475 5.14024 8.39842 5.1925 8.44203Z"
        fill="#1C274C"
        fill-rule="evenodd" />
    <path clip-rule="evenodd" d="M8.04099 13.6685C8.55199 13.7493 9.01337 13.9271 9.38411 14.3631C9.75485 14.7992 9.90596 15.3419 9.97465 15.943C10.0397 16.5125 10.0397 17.2297 10.0397 18.09V19.2271C10.0397 19.8248 10.0397 20.3237 10.0069 20.7288C9.97272 21.1523 9.89844 21.5469 9.70987 21.909C9.52524 22.2632 9.27202 22.5611 8.97084 22.7782C8.66307 23.0001 8.32753 23.0875 7.96747 23.1277C7.62305 23.1662 7.19893 23.1662 6.69081 23.1662H6.6311C5.85778 23.1662 5.23412 23.1662 4.73207 23.1101C4.21432 23.0521 3.76323 22.9295 3.35758 22.6372C2.94687 22.3411 2.60156 21.9349 2.34988 21.4518C2.1013 20.9747 1.99704 20.4441 1.94781 19.8351C1.90008 19.2445 1.90008 18.511 1.90009 17.6014V17.5311C1.90008 16.9334 1.90007 16.4346 1.93281 16.0295C1.96705 15.6059 2.04133 15.2112 2.22994 14.8492C2.4145 14.495 2.66774 14.1971 2.96892 13.98C3.27669 13.7582 3.61225 13.6708 3.9723 13.6305C4.31671 13.5919 4.74078 13.592 5.24889 13.592H6.2157C6.94703 13.5919 7.55687 13.5919 8.04099 13.6685ZM5.96988 19.5758C5.55036 19.5758 5.3406 19.5758 5.1925 19.4522C5.14024 19.4086 5.0946 19.355 5.05752 19.2935C4.95243 19.1193 4.95243 18.8726 4.95243 18.3791C4.95243 17.8857 4.95243 17.639 5.05752 17.4647C5.0946 17.4033 5.14024 17.3495 5.1925 17.3059C5.3406 17.1823 5.55036 17.1823 5.96987 17.1823C6.38939 17.1823 6.59917 17.1823 6.74727 17.3059C6.79954 17.3495 6.84517 17.4033 6.88224 17.4647C6.98733 17.639 6.98733 17.8857 6.98733 18.3791C6.98733 18.8726 6.98733 19.1193 6.88224 19.2935C6.84517 19.355 6.79954 19.4086 6.74727 19.4522C6.59917 19.5758 6.3894 19.5758 5.96988 19.5758Z"
        fill="#1C274C"
        fill-rule="evenodd" />
    <path
        d="M11.2607 17.6243V17.6611H12.4815C12.4815 16.9738 12.4823 16.5124 12.5127 16.1606C12.5421 15.8208 12.5941 15.6639 12.653 15.56C12.7272 15.4293 12.8226 15.3171 12.9338 15.2298C13.022 15.1605 13.1555 15.0993 13.4443 15.0648C13.7434 15.029 14.1357 15.0281 14.72 15.0281H16.3479V13.592H14.6888C14.1437 13.592 13.689 13.5919 13.3208 13.636C12.9354 13.6822 12.5778 13.7824 12.2554 14.0357C12.0111 14.2278 11.8011 14.4747 11.6379 14.7622C11.4225 15.1413 11.3373 15.562 11.298 16.0152C11.2606 16.4483 11.2607 16.9832 11.2607 17.6243Z"
        fill="#1C274C" />
    <path
        d="M19.4002 19.6001V19.5759H18.1793C18.1793 20.0319 18.179 20.3379 18.1653 20.5748C18.1519 20.8052 18.1279 20.9175 18.1018 20.9913C17.9986 21.2846 17.8006 21.5176 17.5512 21.639C17.4884 21.6697 17.393 21.6979 17.1971 21.7136C16.9956 21.7298 16.7355 21.7301 16.3479 21.7301H14.72V23.1663H16.3684C16.7302 23.1663 17.0322 23.1663 17.2802 23.1464C17.5383 23.1257 17.7821 23.081 18.0184 22.9659C18.5669 22.6986 19.0026 22.186 19.2299 21.5409C19.3278 21.2629 19.3658 20.9762 19.3834 20.6726C19.4002 20.3809 19.4002 20.0257 19.4002 19.6001Z"
        fill="#1C274C" />
    <path
        d="M12.4815 22.4482C12.4815 22.8447 12.2083 23.1663 11.8711 23.1663C11.5339 23.1663 11.2607 22.8447 11.2607 22.4482V19.5759H12.4815V22.4482Z"
        fill="#1C274C" />
    <path
        d="M18.7898 13.592C18.4526 13.592 18.1793 13.9135 18.1793 14.31V17.6611H19.4002V14.31C19.4002 13.9135 19.1269 13.592 18.7898 13.592Z"
        fill="#1C274C" />
    <path
        d="M14.2168 17.6262C14.1502 17.8154 14.1502 18.0552 14.1502 18.5347C14.1502 19.0142 14.1502 19.254 14.2168 19.4432C14.3056 19.6953 14.476 19.8957 14.6903 20.0002C14.8512 20.0785 15.0551 20.0785 15.4627 20.0785C15.8704 20.0785 16.0743 20.0785 16.2351 20.0002C16.4495 19.8957 16.6198 19.6953 16.7086 19.4432C16.7752 19.254 16.7752 19.0142 16.7752 18.5347C16.7752 18.0552 16.7752 17.8154 16.7086 17.6262C16.6198 17.374 16.4495 17.1736 16.2351 17.0692C16.0743 16.9908 15.8704 16.9908 15.4627 16.9908C15.0551 16.9908 14.8512 16.9908 14.6903 17.0692C14.476 17.1736 14.3056 17.374 14.2168 17.6262Z"
        fill="#1C274C" />
</svg>
