<svg width="20" height="20" viewBox="0 0 20 20" fill="none" xmlns="http://www.w3.org/2000/svg">
<path d="M10 12.4999C11.3807 12.4999 12.5 11.3806 12.5 9.99992C12.5 8.61921 11.3807 7.49992 10 7.49992C8.6193 7.49992 7.50001 8.61921 7.50001 9.99992C7.50001 11.3806 8.6193 12.4999 10 12.4999Z" stroke="#384B70" stroke-width="2" stroke-linecap="round" stroke-linejoin="round"/>
<path d="M16.1667 12.4999C16.0557 12.7513 16.0227 13.0301 16.0717 13.3004C16.1207 13.5707 16.2496 13.8202 16.4417 14.0166L16.4917 14.0666C16.6466 14.2214 16.7696 14.4052 16.8534 14.6075C16.9373 14.8098 16.9805 15.0267 16.9805 15.2458C16.9805 15.4648 16.9373 15.6817 16.8534 15.884C16.7696 16.0863 16.6466 16.2701 16.4917 16.4249C16.3369 16.5799 16.1531 16.7028 15.9507 16.7867C15.7484 16.8706 15.5315 16.9137 15.3125 16.9137C15.0935 16.9137 14.8766 16.8706 14.6743 16.7867C14.4719 16.7028 14.2881 16.5799 14.1333 16.4249L14.0833 16.3749C13.8869 16.1828 13.6375 16.0539 13.3672 16.0049C13.0968 15.9559 12.818 15.989 12.5667 16.0999C12.3202 16.2056 12.11 16.381 11.9619 16.6045C11.8139 16.8281 11.7344 17.0901 11.7333 17.3582V17.4999C11.7333 17.9419 11.5577 18.3659 11.2452 18.6784C10.9326 18.991 10.5087 19.1666 10.0667 19.1666C9.62465 19.1666 9.20073 18.991 8.88817 18.6784C8.5756 18.3659 8.40001 17.9419 8.40001 17.4999V17.4249C8.39356 17.1491 8.30427 16.8816 8.14377 16.6572C7.98326 16.4328 7.75896 16.2618 7.50001 16.1666C7.24866 16.0557 6.96985 16.0226 6.69952 16.0716C6.42919 16.1206 6.17974 16.2495 5.98334 16.4416L5.93334 16.4916C5.77855 16.6465 5.59474 16.7695 5.39241 16.8533C5.19008 16.9372 4.9732 16.9804 4.75418 16.9804C4.53515 16.9804 4.31827 16.9372 4.11594 16.8533C3.91361 16.7695 3.7298 16.6465 3.57501 16.4916C3.42005 16.3368 3.29712 16.153 3.21324 15.9507C3.12937 15.7483 3.0862 15.5314 3.0862 15.3124C3.0862 15.0934 3.12937 14.8765 3.21324 14.6742C3.29712 14.4719 3.42005 14.288 3.57501 14.1333L3.62501 14.0833C3.81712 13.8869 3.946 13.6374 3.99501 13.3671C4.04403 13.0967 4.01094 12.8179 3.90001 12.5666C3.79437 12.3201 3.61897 12.1099 3.3954 11.9618C3.17182 11.8138 2.90983 11.7343 2.64168 11.7333H2.50001C2.05798 11.7333 1.63406 11.5577 1.3215 11.2451C1.00894 10.9325 0.833344 10.5086 0.833344 10.0666C0.833344 9.62456 1.00894 9.20063 1.3215 8.88807C1.63406 8.57551 2.05798 8.39992 2.50001 8.39992H2.57501C2.85084 8.39347 3.11835 8.30418 3.34276 8.14368C3.56717 7.98317 3.73811 7.75886 3.83334 7.49992C3.94427 7.24857 3.97736 6.96976 3.92835 6.69943C3.87933 6.4291 3.75046 6.17965 3.55834 5.98325L3.50834 5.93325C3.35338 5.77846 3.23045 5.59465 3.14658 5.39232C3.0627 5.18999 3.01953 4.97311 3.01953 4.75408C3.01953 4.53506 3.0627 4.31818 3.14658 4.11585C3.23045 3.91352 3.35338 3.72971 3.50834 3.57492C3.66313 3.41996 3.84695 3.29703 4.04928 3.21315C4.25161 3.12928 4.46848 3.08611 4.68751 3.08611C4.90654 3.08611 5.12341 3.12928 5.32574 3.21315C5.52807 3.29703 5.71189 3.41996 5.86668 3.57492L5.91668 3.62492C6.11308 3.81703 6.36252 3.94591 6.63285 3.99492C6.90318 4.04394 7.182 4.01085 7.43334 3.89992H7.50001C7.74648 3.79428 7.95669 3.61888 8.10475 3.39531C8.25282 3.17173 8.33227 2.90974 8.33334 2.64159V2.49992C8.33334 2.05789 8.50894 1.63397 8.8215 1.32141C9.13406 1.00885 9.55798 0.833252 10 0.833252C10.442 0.833252 10.866 1.00885 11.1785 1.32141C11.4911 1.63397 11.6667 2.05789 11.6667 2.49992V2.57492C11.6677 2.84307 11.7472 3.10506 11.8953 3.32864C12.0433 3.55221 12.2535 3.72762 12.5 3.83325C12.7514 3.94418 13.0302 3.97727 13.3005 3.92826C13.5708 3.87924 13.8203 3.75037 14.0167 3.55825L14.0667 3.50825C14.2215 3.35329 14.4053 3.23036 14.6076 3.14649C14.8099 3.06261 15.0268 3.01944 15.2458 3.01944C15.4649 3.01944 15.6817 3.06261 15.8841 3.14649C16.0864 3.23036 16.2702 3.35329 16.425 3.50825C16.58 3.66304 16.7029 3.84685 16.7868 4.04918C16.8706 4.25151 16.9138 4.46839 16.9138 4.68742C16.9138 4.90644 16.8706 5.12332 16.7868 5.32565C16.7029 5.52798 16.58 5.7118 16.425 5.86658L16.375 5.91658C16.1829 6.11298 16.054 6.36243 16.005 6.63276C15.956 6.90309 15.9891 7.1819 16.1 7.43325V7.49992C16.2056 7.74639 16.381 7.9566 16.6046 8.10466C16.8282 8.25272 17.0902 8.33218 17.3583 8.33325H17.5C17.942 8.33325 18.366 8.50885 18.6785 8.82141C18.9911 9.13397 19.1667 9.55789 19.1667 9.99992C19.1667 10.4419 18.9911 10.8659 18.6785 11.1784C18.366 11.491 17.942 11.6666 17.5 11.6666H17.425C17.1569 11.6677 16.8949 11.7471 16.6713 11.8952C16.4477 12.0432 16.2723 12.2534 16.1667 12.4999Z" stroke="#384B70" stroke-width="2" stroke-linecap="round" stroke-linejoin="round"/>
</svg>
