<svg width="20" height="20" viewBox="0 0 20 20" fill="none" xmlns="http://www.w3.org/2000/svg">
<path d="M10 14.5455C8.74242 14.5455 7.67061 14.1021 6.78455 13.2155C5.89849 12.3288 5.45515 11.257 5.45455 10C5.45394 8.74303 5.89727 7.67121 6.78455 6.78455C7.67182 5.89788 8.74364 5.45455 10 5.45455C11.2564 5.45455 12.3285 5.89788 13.2164 6.78455C14.1042 7.67121 14.5473 8.74303 14.5455 10C14.5436 11.257 14.1003 12.3291 13.2155 13.2164C12.3306 14.1036 11.2588 14.5467 10 14.5455ZM3.63636 10.9091H0V9.09091H3.63636V10.9091ZM20 10.9091H16.3636V9.09091H20V10.9091ZM9.09091 3.63636V0H10.9091V3.63636H9.09091ZM9.09091 20V16.3636H10.9091V20H9.09091ZM4.90909 6.13636L2.61364 3.93182L3.90909 2.59091L6.09091 4.86364L4.90909 6.13636ZM16.0909 17.4091L13.8864 15.1136L15.0909 13.8636L17.3864 16.0682L16.0909 17.4091ZM13.8636 4.90909L16.0682 2.61364L17.4091 3.90909L15.1364 6.09091L13.8636 4.90909ZM2.59091 16.0909L4.88636 13.8864L6.13636 15.0909L3.93182 17.3864L2.59091 16.0909Z" fill="#384B70"/>
</svg>
