<svg fill="none" height="4" viewBox="0 0 3 4" width="3" xmlns="http://www.w3.org/2000/svg">
    <path
        d="M0.216795 0.626184C0.150207 0.815355 0.150208 1.05516 0.150208 1.53468C0.150208 2.01419 0.150207 2.254 0.216795 2.44317C0.305608 2.69533 0.475973 2.89572 0.690349 3.00019C0.851176 3.07851 1.05505 3.07851 1.46272 3.07851C1.87038 3.07851 2.07426 3.07851 2.23509 3.00019C2.44946 2.89572 2.61983 2.69533 2.70864 2.44317C2.77523 2.254 2.77523 2.01419 2.77523 1.53468C2.77523 1.05516 2.77523 0.815355 2.70864 0.626184C2.61983 0.374024 2.44946 0.173634 2.23509 0.069168C2.07426 -0.00915589 1.87038 -0.00915527 1.46272 -0.00915527C1.05505 -0.00915527 0.851176 -0.00915589 0.690349 0.069168C0.475973 0.173634 0.305608 0.374024 0.216795 0.626184Z"
        fill="#1C274C" />
</svg>
