<svg width="22" height="24" viewBox="0 0 22 24" fill="none" xmlns="http://www.w3.org/2000/svg">
<path d="M2.19873 11.3802V12.3698C2.19873 15.6231 2.19873 17.2497 2.9932 18.3445C3.13865 18.5449 3.30114 18.7287 3.47837 18.8932C4.44643 19.7917 5.88471 19.7917 8.76128 19.7917C11.6379 19.7917 13.0761 19.7917 14.0442 18.8932C14.2214 18.7287 14.3839 18.5449 14.5293 18.3445C15.1432 17.4985 15.2828 16.3351 15.3145 14.349L15.8999 14.6748C17.6025 15.6375 18.4539 16.119 19.0764 15.6838C19.6989 15.2488 19.6989 14.1724 19.6989 12.0194V11.7307C19.6989 9.57775 19.6989 8.5013 19.0764 8.0662C18.4539 7.63111 17.6025 8.11253 15.8999 9.07533L15.3145 9.4011C15.2828 7.41502 15.1432 6.25154 14.5293 5.40557C14.3839 5.20514 14.2214 5.02136 14.0442 4.85688C13.0761 3.95837 11.6379 3.95837 8.76128 3.95837C5.88471 3.95837 4.44643 3.95837 3.47837 4.85688C3.30114 5.02136 3.13865 5.20514 2.9932 5.40557C2.19873 6.5004 2.19873 8.12701 2.19873 11.3802Z" fill="#1C274C"/>
</svg>
